<svg width="1280" height="720" viewBox="0 0 1280 720" fill="none" xmlns="http://www.w3.org/2000/svg" role="img" aria-labelledby="title desc">
  <title id="title">Release Sentinel dashboard preview</title>
  <desc id="desc">A dashboard-style preview with error rate, throughput, latency, and rollout status panels.</desc>
  <rect width="1280" height="720" fill="#0B1220"/>
  <rect x="48" y="40" width="1184" height="640" rx="22" fill="#111827" stroke="#26364D"/>
  <rect x="48" y="40" width="1184" height="76" rx="22" fill="#0F172A"/>
  <text x="88" y="88" fill="#F8FAFC" font-family="Inter, ui-sans-serif, system-ui, sans-serif" font-size="26" font-weight="800">Release Sentinel</text>
  <text x="326" y="88" fill="#94A3B8" font-family="Inter, ui-sans-serif, system-ui, sans-serif" font-size="16">canary rollout health · last 15 minutes</text>
  <rect x="1068" y="64" width="116" height="30" rx="15" fill="#052E24"/>
  <text x="1092" y="84" fill="#86EFAC" font-family="Inter, ui-sans-serif, system-ui, sans-serif" font-size="13" font-weight="700">healthy</text>

  <g font-family="Inter, ui-sans-serif, system-ui, sans-serif">
    <rect x="88" y="148" width="336" height="180" rx="18" fill="#0B1220" stroke="#22334A"/>
    <text x="116" y="188" fill="#CBD5E1" font-size="16" font-weight="700">Error rate</text>
    <text x="116" y="252" fill="#22C55E" font-size="54" font-weight="800">0.8%</text>
    <path d="M116 292H396" stroke="#1E293B" stroke-width="2"/>
    <path d="M116 289C146 282 168 296 199 286C230 276 248 258 279 266C318 276 340 302 396 280" stroke="#22C55E" stroke-width="4" stroke-linecap="round"/>

    <rect x="472" y="148" width="336" height="180" rx="18" fill="#0B1220" stroke="#22334A"/>
    <text x="500" y="188" fill="#CBD5E1" font-size="16" font-weight="700">Throughput</text>
    <text x="500" y="252" fill="#38BDF8" font-size="54" font-weight="800">128 rps</text>
    <rect x="502" y="288" width="46" height="18" rx="5" fill="#1D4ED8"/>
    <rect x="558" y="270" width="46" height="36" rx="5" fill="#1D4ED8"/>
    <rect x="614" y="250" width="46" height="56" rx="5" fill="#1D4ED8"/>
    <rect x="670" y="232" width="46" height="74" rx="5" fill="#1D4ED8"/>
    <rect x="726" y="262" width="46" height="44" rx="5" fill="#1D4ED8"/>

    <rect x="856" y="148" width="336" height="180" rx="18" fill="#0B1220" stroke="#22334A"/>
    <text x="884" y="188" fill="#CBD5E1" font-size="16" font-weight="700">Average latency</text>
    <text x="884" y="252" fill="#FDE68A" font-size="54" font-weight="800">93 ms</text>
    <path d="M884 292H1164" stroke="#1E293B" stroke-width="2"/>
    <path d="M884 284C914 274 932 282 962 270C995 257 1019 250 1052 259C1090 268 1118 292 1164 268" stroke="#F59E0B" stroke-width="4" stroke-linecap="round"/>

    <rect x="88" y="368" width="528" height="248" rx="18" fill="#0B1220" stroke="#22334A"/>
    <text x="116" y="408" fill="#CBD5E1" font-size="16" font-weight="700">Rollout status</text>
    <rect x="116" y="448" width="92" height="34" rx="17" fill="#064E3B"/>
    <text x="140" y="470" fill="#A7F3D0" font-size="13" font-weight="700">stable</text>
    <rect x="232" y="448" width="96" height="34" rx="17" fill="#312E81"/>
    <text x="256" y="470" fill="#C4B5FD" font-size="13" font-weight="700">canary</text>
    <rect x="116" y="528" width="448" height="18" rx="9" fill="#1E293B"/>
    <rect x="116" y="528" width="46" height="18" rx="9" fill="#22C55E"/>
    <text x="116" y="574" fill="#94A3B8" font-size="15">10% traffic shifted · Prometheus analysis passed</text>

    <rect x="664" y="368" width="528" height="248" rx="18" fill="#0B1220" stroke="#22334A"/>
    <text x="692" y="408" fill="#CBD5E1" font-size="16" font-weight="700">Security gate</text>
    <text x="692" y="462" fill="#E2E8F0" font-size="22" font-weight="700">SBOM generated</text>
    <text x="692" y="504" fill="#E2E8F0" font-size="22" font-weight="700">Trivy scan passed</text>
    <text x="692" y="546" fill="#E2E8F0" font-size="22" font-weight="700">Helm render passed</text>
    <circle cx="1144" cy="454" r="13" fill="#22C55E"/>
    <circle cx="1144" cy="496" r="13" fill="#22C55E"/>
    <circle cx="1144" cy="538" r="13" fill="#22C55E"/>
  </g>
</svg>
