<svg width="1280" height="640" viewBox="0 0 1280 640" fill="none" xmlns="http://www.w3.org/2000/svg" role="img" aria-labelledby="title desc">
  <title id="title">Release Sentinel overview</title>
  <desc id="desc">A release safety dashboard showing canary analysis, security checks, and observability signals.</desc>
  <defs>
    <linearGradient id="bg" x1="0" y1="0" x2="1280" y2="640" gradientUnits="userSpaceOnUse">
      <stop offset="0" stop-color="#08111F"/>
      <stop offset="0.55" stop-color="#12233A"/>
      <stop offset="1" stop-color="#0D1B2A"/>
    </linearGradient>
    <linearGradient id="panel" x1="96" y1="112" x2="1184" y2="548" gradientUnits="userSpaceOnUse">
      <stop offset="0" stop-color="#172A42"/>
      <stop offset="1" stop-color="#101B2C"/>
    </linearGradient>
    <filter id="shadow" x="52" y="68" width="1176" height="524" filterUnits="userSpaceOnUse" color-interpolation-filters="sRGB">
      <feDropShadow dx="0" dy="24" stdDeviation="24" flood-color="#000000" flood-opacity="0.35"/>
    </filter>
  </defs>

  <rect width="1280" height="640" fill="url(#bg)"/>
  <path d="M0 505C140 456 230 527 386 489C531 454 586 357 746 388C922 422 1040 566 1280 488V640H0V505Z" fill="#0EA5A3" opacity="0.1"/>
  <path d="M0 420C152 356 268 425 420 386C558 351 646 255 806 304C962 352 1053 458 1280 372" stroke="#38BDF8" stroke-opacity="0.28" stroke-width="2"/>

  <g filter="url(#shadow)">
    <rect x="96" y="88" width="1088" height="464" rx="24" fill="url(#panel)" stroke="#28425F"/>
  </g>

  <rect x="128" y="120" width="1024" height="64" rx="14" fill="#0B1524" stroke="#233B56"/>
  <circle cx="160" cy="152" r="9" fill="#EF4444"/>
  <circle cx="188" cy="152" r="9" fill="#F59E0B"/>
  <circle cx="216" cy="152" r="9" fill="#22C55E"/>
  <text x="254" y="160" fill="#B8C7D9" font-family="Inter, ui-sans-serif, system-ui, -apple-system, BlinkMacSystemFont, Segoe UI, sans-serif" font-size="18">release-sentinel / safe rollout control</text>

  <text x="132" y="248" fill="#F8FAFC" font-family="Inter, ui-sans-serif, system-ui, -apple-system, BlinkMacSystemFont, Segoe UI, sans-serif" font-size="54" font-weight="700">Release Sentinel</text>
  <text x="132" y="292" fill="#B8C7D9" font-family="Inter, ui-sans-serif, system-ui, -apple-system, BlinkMacSystemFont, Segoe UI, sans-serif" font-size="23">Canary releases with evidence before promotion.</text>

  <g>
    <rect x="132" y="336" width="174" height="56" rx="12" fill="#10243A" stroke="#2B4D6D"/>
    <text x="154" y="370" fill="#67E8F9" font-family="Inter, ui-sans-serif, system-ui, sans-serif" font-size="18" font-weight="700">SBOM + Trivy</text>
  </g>
  <g>
    <rect x="322" y="336" width="176" height="56" rx="12" fill="#10243A" stroke="#2B4D6D"/>
    <text x="344" y="370" fill="#A7F3D0" font-family="Inter, ui-sans-serif, system-ui, sans-serif" font-size="18" font-weight="700">Prometheus SLO</text>
  </g>
  <g>
    <rect x="514" y="336" width="176" height="56" rx="12" fill="#10243A" stroke="#2B4D6D"/>
    <text x="536" y="370" fill="#FDE68A" font-family="Inter, ui-sans-serif, system-ui, sans-serif" font-size="18" font-weight="700">Auto rollback</text>
  </g>

  <g>
    <rect x="748" y="224" width="360" height="252" rx="18" fill="#091322" stroke="#27415D"/>
    <text x="780" y="264" fill="#E2E8F0" font-family="Inter, ui-sans-serif, system-ui, sans-serif" font-size="18" font-weight="700">Canary health</text>
    <text x="780" y="303" fill="#94A3B8" font-family="Inter, ui-sans-serif, system-ui, sans-serif" font-size="14">success rate</text>
    <text x="780" y="350" fill="#22C55E" font-family="Inter, ui-sans-serif, system-ui, sans-serif" font-size="44" font-weight="800">99.2%</text>
    <path d="M780 414H1058" stroke="#1F344D" stroke-width="2"/>
    <path d="M780 413C814 398 838 425 872 407C904 390 921 347 954 360C990 373 1002 433 1058 390" stroke="#22C55E" stroke-width="4" stroke-linecap="round" stroke-linejoin="round"/>
    <rect x="780" y="442" width="130" height="28" rx="14" fill="#052E24"/>
    <text x="800" y="462" fill="#86EFAC" font-family="Inter, ui-sans-serif, system-ui, sans-serif" font-size="13" font-weight="700">promotion safe</text>
    <rect x="926" y="442" width="130" height="28" rx="14" fill="#271A0A"/>
    <text x="947" y="462" fill="#FDE68A" font-family="Inter, ui-sans-serif, system-ui, sans-serif" font-size="13" font-weight="700">analysis ready</text>
  </g>

  <text x="132" y="506" fill="#7DD3FC" font-family="Inter, ui-sans-serif, system-ui, sans-serif" font-size="16">Kubernetes · Helm · Argo Rollouts · Prometheus · Grafana · Go · k6 · GitHub Actions</text>
</svg>
